<svg width="564" height="564" viewBox="0 0 564 564" fill="none" xmlns="http://www.w3.org/2000/svg">
<circle cx="282" cy="282" r="282" fill="white"/>
<path d="M458.641 238.06C454.991 236.97 451.591 235.28 447.941 234.15C434.571 230.04 401.721 225.16 395.611 242.29C388.901 261.12 424.171 268.84 436.411 274.03C456.401 282.52 473.381 295.31 474.681 318.83C476.231 346.96 455.911 365.27 430.341 371.53C405.411 377.64 375.481 374.78 352.061 364.45L359.901 332.6C369.421 336.84 379.481 340.33 389.841 341.94C402.961 343.97 429.281 345.21 433.021 328.18C437.381 308.36 407.371 302.47 394.051 297.03C369.381 286.94 349.101 269.57 355.141 240.09C363.951 197.1 423.121 193.37 457.201 203.51C458.701 203.96 466.971 206.55 467.231 207.49L458.631 238.05L458.641 238.06Z" fill="#EA2525"/>
<path d="M307.4 221.45C336.77 250.34 352.99 297.95 330.12 335.95C320.69 351.61 301.77 364.92 285.51 372.77C282.05 374.44 278.41 375.87 274.74 377.01C274.56 376.19 274.92 375.91 275.33 375.35C282.87 365.14 287.32 359.75 290.26 346.7C301.01 299.03 274.89 244.36 228.22 227.19L167.37 207.21L167.35 206.01C169.9 205.52 172.82 204.44 175.29 203.46C192.22 196.74 209.09 189.83 225.98 183C239.76 188.45 254.26 192.13 268.22 197.1C284.1 202.76 295.41 209.67 307.41 221.47L307.4 221.45Z" fill="#EA2525"/>
<path d="M172.289 223.461L226.409 239.271L226.659 340.971C226.959 341.841 229.359 342.391 230.299 342.681C243.539 346.771 257.559 349.451 270.709 353.691C271.619 353.981 273.949 354.461 273.939 355.421C273.939 355.691 271.589 359.541 271.209 360.111C264.019 371.081 252.329 377.651 239.529 379.841C218.469 383.431 194.389 371.331 173.619 367.261L172.309 366.521V223.461H172.289Z" fill="#040404"/>
<path d="M131.97 197.77H90V374.95H131.97V197.77Z" fill="#EA2525"/>
</svg>
